<?xml version="1.0" encoding="UTF-8" standalone="no"?><!-- Created with Inkscape (http://www.inkscape.org/) -->

<svg xmlns:dc="http://purl.org/dc/elements/1.1/" xmlns:cc="http://creativecommons.org/ns#"
    xmlns:rdf="http://www.w3.org/1999/02/22-rdf-syntax-ns#" xmlns="http://www.w3.org/2000/svg"
    xmlns:sodipodi="http://sodipodi.sourceforge.net/DTD/sodipodi-0.dtd"
    xmlns:inkscape="http://www.inkscape.org/namespaces/inkscape" width="744.09448819"
    height="1052.3622047" id="svg2" version="1.1" inkscape:version="0.92.3 (2405546, 2018-03-11)"
    sodipodi:docname="OneBusAway_Logo_full_bleed.svg"
    inkscape:export-filename="C:\Users\barbeau\Dropbox\CUTR\OneBusAway\OneBusAway_Logo_full_bleed-512-512.png"
    inkscape:export-xdpi="83.536018" inkscape:export-ydpi="83.536018">
  <defs id="defs4">
    <clipPath id="clipPath2999" clipPathUnits="userSpaceOnUse">
      <path id="path3001"
          d="M 10,57 C 4.477,57 0,52.523 0,47 L 0,47 0,10 C 0,4.477 4.477,0 10,0 l 0,0 37,0 c 5.523,0 10,4.477 10,10 l 0,0 0,37 c 0,5.523 -4.477,10 -10,10 l 0,0 -37,0 z" />
    </clipPath>
  </defs>
  <sodipodi:namedview id="base" pagecolor="#ffffff" bordercolor="#666666" borderopacity="1.0"
      inkscape:pageopacity="0.0" inkscape:pageshadow="2" inkscape:zoom="0.35"
      inkscape:cx="-89.285714" inkscape:cy="520" inkscape:document-units="px"
      inkscape:current-layer="g2995" showgrid="false" inkscape:window-width="1920"
      inkscape:window-height="1058" inkscape:window-x="-8" inkscape:window-y="-8"
      inkscape:window-maximized="1" />
  <metadata id="metadata7">
    <rdf:RDF>
      <cc:Work rdf:about="">
        <dc:format>image/svg+xml</dc:format>
        <dc:type rdf:resource="http://purl.org/dc/dcmitype/StillImage" />
        <dc:title></dc:title>
      </cc:Work>
    </rdf:RDF>
  </metadata>
  <g inkscape:label="Layer 1" inkscape:groupmode="layer" id="layer1">
    <g transform="matrix(10.322682,0,0,-10.322682,65.089284,813.70146)"
        inkscape:label="OneBusAway-AppIcon" id="g2993">
      <g id="g2995">
        <path inkscape:connector-curvature="0"
            d="M 59.491047,-3.044613 H -3.598179 v 63.089226 h 63.089226 z"
            style="fill:#78aa36;fill-opacity:1;fill-rule:nonzero;stroke:none;stroke-width:1.10682845"
            id="path3003" inkscape:export-xdpi="75.470001" inkscape:export-ydpi="75.470001" />
        <g id="g3005" transform="translate(24.3032,3.3682)" inkscape:export-xdpi="75.470001"
            inkscape:export-ydpi="75.470001">
          <path inkscape:connector-curvature="0"
              d="m 0,0 c 0,-0.929 -0.661,-1.678 -1.479,-1.678 h -1.88 c -0.815,0 -1.479,0.749 -1.479,1.678 0,0.926 0.664,1.678 1.479,1.678 h 1.88 C -0.661,1.678 0,0.926 0,0"
              style="fill:#000000;fill-opacity:1;fill-rule:nonzero;stroke:none" id="path3007" />
        </g>
        <g id="g3009" transform="translate(24.3032,3.3682)" inkscape:export-xdpi="75.470001"
            inkscape:export-ydpi="75.470001">
          <path inkscape:connector-curvature="0"
              d="m 0,0 c 0,-0.929 -0.661,-1.678 -1.479,-1.678 h -1.88 c -0.815,0 -1.479,0.749 -1.479,1.678 0,0.926 0.664,1.678 1.479,1.678 h 1.88 C -0.661,1.678 0,0.926 0,0 Z"
              style="fill:none;stroke:#000000;stroke-width:1;stroke-linecap:butt;stroke-linejoin:miter;stroke-miterlimit:4;stroke-dasharray:none;stroke-opacity:1"
              id="path3011" />
        </g>
        <g id="g3013" transform="translate(38.5371,18.2061)" inkscape:export-xdpi="75.470001"
            inkscape:export-ydpi="75.470001">
          <path inkscape:connector-curvature="0"
              d="m 0,0 c 0,4.85 -1.174,5.965 -4.511,5.965 h -11.084 c -2.678,0 -4.133,-0.904 -4.133,-5.965 v -9.271 c 0,-5.543 -0.8,-5.112 4.133,-5.112 H -4.511 C 0.75,-14.171 0.095,-14.814 0,-9.271 Z"
              style="fill:#000000;fill-opacity:1;fill-rule:nonzero;stroke:none" id="path3015" />
        </g>
        <g id="g3017" transform="translate(38.5371,18.2061)" inkscape:export-xdpi="75.470001"
            inkscape:export-ydpi="75.470001">
          <path inkscape:connector-curvature="0"
              d="m 0,0 c 0,4.85 -1.174,5.965 -4.511,5.965 h -11.084 c -2.678,0 -4.133,-0.904 -4.133,-5.965 v -9.271 c 0,-5.543 -0.8,-5.112 4.133,-5.112 H -4.511 C 0.75,-14.171 0.095,-14.814 0,-9.271 Z"
              style="fill:none;stroke:#000000;stroke-width:1;stroke-linecap:butt;stroke-linejoin:miter;stroke-miterlimit:4;stroke-dasharray:none;stroke-opacity:1"
              id="path3019" />
        </g>
        <g id="g3021" transform="translate(37.9746,3.3135)" inkscape:export-xdpi="75.470001"
            inkscape:export-ydpi="75.470001">
          <path inkscape:connector-curvature="0"
              d="m 0,0 c 0,-0.929 -0.665,-1.679 -1.483,-1.679 h -1.876 c -0.818,0 -1.479,0.75 -1.479,1.679 0,0.925 0.661,1.679 1.479,1.679 h 1.876 C -0.665,1.679 0,0.925 0,0"
              style="fill:#000000;fill-opacity:1;fill-rule:nonzero;stroke:none" id="path3023" />
        </g>
        <g id="g3025" transform="translate(37.9746,3.3135)" inkscape:export-xdpi="75.470001"
            inkscape:export-ydpi="75.470001">
          <path inkscape:connector-curvature="0"
              d="m 0,0 c 0,-0.929 -0.665,-1.679 -1.483,-1.679 h -1.876 c -0.818,0 -1.479,0.75 -1.479,1.679 0,0.925 0.661,1.679 1.479,1.679 h 1.876 C -0.665,1.679 0,0.925 0,0 Z"
              style="fill:none;stroke:#000000;stroke-width:1;stroke-linecap:butt;stroke-linejoin:miter;stroke-miterlimit:4;stroke-dasharray:none;stroke-opacity:1"
              id="path3027" />
        </g>
        <path inkscape:connector-curvature="0" d="M 34.826,21.617 H 22.19 v 1.388 h 12.636 z"
            style="fill:#ffffff;fill-opacity:1;fill-rule:nonzero;stroke:none" id="path3029"
            inkscape:export-xdpi="75.470001" inkscape:export-ydpi="75.470001" />
        <path inkscape:connector-curvature="0" d="m 27.965,20.445 h -8.313 v -7.727 h 8.313 z"
            style="fill:#ffffff;fill-opacity:1;fill-rule:nonzero;stroke:none" id="path3031"
            inkscape:export-xdpi="75.470001" inkscape:export-ydpi="75.470001" />
        <path inkscape:connector-curvature="0" d="M 37.27,20.445 H 29.141 V 12.667 H 37.27 Z"
            style="fill:#ffffff;fill-opacity:1;fill-rule:nonzero;stroke:none" id="path3033"
            inkscape:export-xdpi="75.470001" inkscape:export-ydpi="75.470001" />
        <path inkscape:connector-curvature="0" d="M 24.725,9.683 H 19.702 V 7.234 h 5.023 z"
            style="fill:#ffffff;fill-opacity:1;fill-rule:nonzero;stroke:none" id="path3035"
            inkscape:export-xdpi="75.470001" inkscape:export-ydpi="75.470001" />
        <path inkscape:connector-curvature="0" d="M 37.458,9.734 H 32.619 V 7.445 h 4.839 z"
            style="fill:#ffffff;fill-opacity:1;fill-rule:nonzero;stroke:none" id="path3037"
            inkscape:export-xdpi="75.470001" inkscape:export-ydpi="75.470001" />
        <g id="g3039" transform="translate(4.4849,5.9902)" inkscape:export-xdpi="75.470001"
            inkscape:export-ydpi="75.470001">
          <path inkscape:connector-curvature="0"
              d="M 0,0 H -0.002 L 1.049,1.977 H 7.536 L 8.587,0 Z M 6.149,4.589 7.011,2.965 H 1.573 l 0.863,1.624 z m 3.485,-6.563 2.409,0.556 -3.532,6.094 c 1.717,0.22 3.319,1.004 3.319,3.846 v 6.656 c 0,0.337 -0.018,1.646 -1.291,2.078 v 2.441 c 0,0.93 -1.813,2.221 -2.221,2.221 L 4.173,22.412 0.026,21.918 c -0.407,0 -2.22,-1.261 -2.22,-2.221 v -2.439 c -1.286,-0.43 -1.291,-1.741 -1.291,-2.08 V 8.522 c 0,-3.038 1.447,-3.731 3.535,-3.888 l -3.508,-6.052 2.409,-0.556 0.523,0.987 h 9.635 z"
              style="fill:#000000;fill-opacity:1;fill-rule:nonzero;stroke:none" id="path3041" />
        </g>
        <g id="g3043" transform="translate(10.0376,20.916)" inkscape:export-xdpi="75.470001"
            inkscape:export-ydpi="75.470001">
          <path inkscape:connector-curvature="0"
              d="m 0,0 c 0,-0.764 -0.618,-1.38 -1.38,-1.38 -0.762,0 -1.378,0.616 -1.378,1.38 0,0.76 0.616,1.379 1.378,1.379 C -0.618,1.379 0,0.76 0,0"
              style="fill:#ffffff;fill-opacity:1;fill-rule:nonzero;stroke:none" id="path3045" />
        </g>
        <g id="g3047" transform="translate(10.0376,20.916)" inkscape:export-xdpi="75.470001"
            inkscape:export-ydpi="75.470001">
          <path inkscape:connector-curvature="0"
              d="m 0,0 c 0,-0.764 -0.618,-1.38 -1.38,-1.38 -0.762,0 -1.378,0.616 -1.378,1.38 0,0.76 0.616,1.379 1.378,1.379 C -0.618,1.379 0,0.76 0,0 Z"
              style="fill:none;stroke:#ffffff;stroke-width:0.75;stroke-linecap:butt;stroke-linejoin:miter;stroke-miterlimit:4;stroke-dasharray:none;stroke-opacity:1"
              id="path3049" />
        </g>
        <g id="g3051" transform="translate(5.4746,14.0811)" inkscape:export-xdpi="75.470001"
            inkscape:export-ydpi="75.470001">
          <path inkscape:connector-curvature="0"
              d="m 0,0 c 0,-0.544 -0.444,-0.987 -0.99,-0.987 -0.545,0 -0.988,0.443 -0.988,0.987 0,0.546 0.443,0.987 0.988,0.987 C -0.444,0.987 0,0.546 0,0"
              style="fill:#ffffff;fill-opacity:1;fill-rule:nonzero;stroke:none" id="path3053" />
        </g>
        <g id="g3055" transform="translate(5.4746,14.0811)" inkscape:export-xdpi="75.470001"
            inkscape:export-ydpi="75.470001">
          <path inkscape:connector-curvature="0"
              d="m 0,0 c 0,-0.544 -0.444,-0.987 -0.99,-0.987 -0.545,0 -0.988,0.443 -0.988,0.987 0,0.546 0.443,0.987 0.988,0.987 C -0.444,0.987 0,0.546 0,0 Z"
              style="fill:none;stroke:#ffffff;stroke-width:0.75;stroke-linecap:butt;stroke-linejoin:miter;stroke-miterlimit:4;stroke-dasharray:none;stroke-opacity:1"
              id="path3057" />
        </g>
        <g id="g3059" transform="translate(13.7495,13.957)" inkscape:export-xdpi="75.470001"
            inkscape:export-ydpi="75.470001">
          <path inkscape:connector-curvature="0"
              d="m 0,0 c 0,-0.544 -0.443,-0.987 -0.988,-0.987 -0.544,0 -0.99,0.443 -0.99,0.987 0,0.547 0.446,0.989 0.99,0.989 C -0.443,0.989 0,0.547 0,0"
              style="fill:#ffffff;fill-opacity:1;fill-rule:nonzero;stroke:none" id="path3061" />
        </g>
        <g id="g3063" transform="translate(13.7495,13.957)" inkscape:export-xdpi="75.470001"
            inkscape:export-ydpi="75.470001">
          <path inkscape:connector-curvature="0"
              d="m 0,0 c 0,-0.544 -0.443,-0.987 -0.988,-0.987 -0.544,0 -0.99,0.443 -0.99,0.987 0,0.547 0.446,0.989 0.99,0.989 C -0.443,0.989 0,0.547 0,0 Z"
              style="fill:none;stroke:#ffffff;stroke-width:0.75;stroke-linecap:butt;stroke-linejoin:miter;stroke-miterlimit:4;stroke-dasharray:none;stroke-opacity:1"
              id="path3065" />
        </g>
        <g id="g3067" transform="translate(7.0981,27.0117)" inkscape:export-xdpi="75.470001"
            inkscape:export-ydpi="75.470001">
          <path inkscape:connector-curvature="0"
              d="m 0,0 -1.66,-0.21 c -0.314,0 -1.721,-1.036 -1.721,-1.826 V -3.491 L 0,-2.574 Z"
              style="fill:#ffffff;fill-opacity:1;fill-rule:nonzero;stroke:none" id="path3069" />
        </g>
        <g id="g3071" transform="translate(7.0981,27.0117)" inkscape:export-xdpi="75.470001"
            inkscape:export-ydpi="75.470001">
          <path inkscape:connector-curvature="0"
              d="m 0,0 -1.66,-0.21 c -0.314,0 -1.721,-1.036 -1.721,-1.826 V -3.491 L 0,-2.574 Z"
              style="fill:none;stroke:#ffffff;stroke-width:0.75;stroke-linecap:butt;stroke-linejoin:miter;stroke-miterlimit:4;stroke-dasharray:none;stroke-opacity:1"
              id="path3073" />
        </g>
        <g id="g3075" transform="translate(13.5981,23.5225)" inkscape:export-xdpi="75.470001"
            inkscape:export-ydpi="75.470001">
          <path inkscape:connector-curvature="0"
              d="M 0,0 V 1.453 C 0,2.218 -1.406,3.279 -1.722,3.279 L -3.453,3.498 V 0.95 Z"
              style="fill:#ffffff;fill-opacity:1;fill-rule:nonzero;stroke:none" id="path3077" />
        </g>
        <g id="g3079" transform="translate(13.5981,23.5225)" inkscape:export-xdpi="75.470001"
            inkscape:export-ydpi="75.470001">
          <path inkscape:connector-curvature="0"
              d="M 0,0 V 1.453 C 0,2.218 -1.406,3.279 -1.722,3.279 L -3.453,3.498 V 0.95 Z"
              style="fill:none;stroke:#ffffff;stroke-width:0.75;stroke-linecap:butt;stroke-linejoin:miter;stroke-miterlimit:4;stroke-dasharray:none;stroke-opacity:1"
              id="path3081" />
        </g>
        <g id="g3083" transform="translate(44.667,4.8164)" inkscape:export-xdpi="75.470001"
            inkscape:export-ydpi="75.470001">
          <path inkscape:connector-curvature="0"
              d="M 0,0 -0.002,-0.001 0.963,1.815 H 6.924 L 7.888,0 Z M 5.9,3.743 6.441,2.724 H 1.445 L 1.986,3.743 Z M 1.308,25.879 H 6.579 L 5.52,22.955 H 2.367 Z M 8.141,3.743 h 0.457 c 1.215,0 2.201,0.986 2.201,2.201 l -0.551,14.81 c 0,1.217 -0.984,2.201 -2.2,2.201 H 6.367 l 1.06,2.924 h 1.27 v -1.066 h 0.894 v 1.789 H -1.792 v -1.789 h 0.757 v 1.066 H 0.459 L 1.52,22.955 h -1.68 c -1.215,0 -2.201,-0.984 -2.201,-2.201 L -2.912,5.944 c 0,-1.215 0.986,-2.201 2.201,-2.201 h 0.457 l -2.925,-5.049 2.213,-0.51 0.483,0.908 H 8.37 l 0.482,-0.908 2.213,0.51 z"
              style="fill:#000000;fill-opacity:1;fill-rule:nonzero;stroke:none" id="path3085" />
        </g>
        <g id="g3087" transform="translate(46.1865,11.1787)" inkscape:export-xdpi="75.470001"
            inkscape:export-ydpi="75.470001">
          <path inkscape:connector-curvature="0"
              d="m 0,0 c 0,-0.692 -0.563,-1.254 -1.256,-1.254 -0.693,0 -1.256,0.562 -1.256,1.254 0,0.693 0.563,1.256 1.256,1.256 C -0.563,1.256 0,0.693 0,0"
              style="fill:#ffffff;fill-opacity:1;fill-rule:nonzero;stroke:none" id="path3089" />
        </g>
        <g id="g3091" transform="translate(53.5459,11.1104)" inkscape:export-xdpi="75.470001"
            inkscape:export-ydpi="75.470001">
          <path inkscape:connector-curvature="0"
              d="m 0,0 c 0,-0.693 -0.563,-1.255 -1.256,-1.255 -0.693,0 -1.256,0.562 -1.256,1.255 0,0.693 0.563,1.256 1.256,1.256 C -0.563,1.256 0,0.693 0,0"
              style="fill:#ffffff;fill-opacity:1;fill-rule:nonzero;stroke:none" id="path3093" />
        </g>
        <g id="g3095" transform="translate(54.2822,15.0928)" inkscape:export-xdpi="75.470001"
            inkscape:export-ydpi="75.470001">
          <path inkscape:connector-curvature="0"
              d="m 0,0 c 0,-0.588 -0.571,-1.065 -1.616,-1.065 h -8.001 c -1.045,0 -1.727,0.477 -1.727,1.065 l 0.309,7.177 c 0,0.588 0.847,1.066 1.89,1.066 h 7.056 c 1.044,0 1.892,-0.478 1.892,-1.066 z"
              style="fill:#ffffff;fill-opacity:1;fill-rule:nonzero;stroke:none" id="path3097" />
        </g>
        <path inkscape:connector-curvature="0" d="m 53.253,24.265 h -9.285 v 1.788 h 9.285 z"
            style="fill:#ffffff;fill-opacity:1;fill-rule:nonzero;stroke:none" id="path3099"
            inkscape:export-xdpi="75.470001" inkscape:export-ydpi="75.470001" />
      </g>
    </g>
  </g>
</svg>
