<?xml version="1.0" encoding="UTF-8" standalone="no"?><svg xmlns:dc="http://purl.org/dc/elements/1.1/" xmlns:cc="http://creativecommons.org/ns#" xmlns:rdf="http://www.w3.org/1999/02/22-rdf-syntax-ns#" xmlns:svg="http://www.w3.org/2000/svg" xmlns="http://www.w3.org/2000/svg" xmlns:sodipodi="http://sodipodi.sourceforge.net/DTD/sodipodi-0.dtd" xmlns:inkscape="http://www.inkscape.org/namespaces/inkscape" version="1.1" x="0px" y="0px" viewBox="0 0 100 100" style="enable-background:new 0 0 100 100;" xml:space="preserve" id="svg2" inkscape:version="0.91 r13725" width="100%" height="100%" sodipodi:docname="marker_with_subway_smaller_all_inside.svg"><metadata id="metadata12"><rdf:RDF><cc:Work rdf:about=""><dc:format>image/svg+xml</dc:format><dc:type rdf:resource="http://purl.org/dc/dcmitype/StillImage" /><dc:title /></cc:Work></rdf:RDF></metadata><defs id="defs10" /><sodipodi:namedview pagecolor="#ffffff" bordercolor="#666666" borderopacity="1" objecttolerance="10" gridtolerance="10" guidetolerance="10" inkscape:pageopacity="0" inkscape:pageshadow="2" inkscape:window-width="1920" inkscape:window-height="1058" id="namedview8" showgrid="false" inkscape:zoom="7.1470327" inkscape:cx="25.693779" inkscape:cy="54.317978" inkscape:window-x="1912" inkscape:window-y="-8" inkscape:window-maximized="1" inkscape:current-layer="svg2" /><rect style="" width="100" height="100" fill="none" id="rect4" /><path style="fill:#000000" d="M71.5,39c0,12.15-22,44-22,44s-22-31.85-22-44c0-12.151,9.849-22,22-22C61.65,17,71.5,26.849,71.5,39  z" fill="#1D1D1B" id="path6" /><path style="fill:#ffffff" d="m 49.465113,29.045359 c -5.747807,0 -10.403271,0.650204 -10.403271,5.201636 l 0,12.353885 c 0,2.516291 2.041642,4.551431 4.551431,4.551431 l -1.950614,1.950614 0,0.650204 15.604908,0 0,-0.650204 -1.950613,-1.950614 c 2.516291,0 4.551431,-2.03514 4.551431,-4.551431 l 0,-12.353885 c 0,-4.551432 -4.655464,-5.201636 -10.403272,-5.201636 z m -5.85184,19.506134 c -1.07934,0 -1.950614,-0.871274 -1.950614,-1.950613 0,-1.07934 0.871274,-1.950614 1.950614,-1.950614 1.079339,0 1.950613,0.871274 1.950613,1.950614 0,1.079339 -0.871274,1.950613 -1.950613,1.950613 z m 4.551431,-7.802454 -6.502045,0 0,-6.502044 6.502045,0 0,6.502044 z m 7.15225,7.802454 c -1.07934,0 -1.950614,-0.871274 -1.950614,-1.950613 0,-1.07934 0.871274,-1.950614 1.950614,-1.950614 1.079339,0 1.950613,0.871274 1.950613,1.950614 0,1.079339 -0.871274,1.950613 -1.950613,1.950613 z m 1.950613,-7.802454 -6.502045,0 0,-6.502044 6.502045,0 0,6.502044 z" id="path8" inkscape:connector-curvature="0" /><path inkscape:connector-curvature="0" d="m 30.417953,42.316046 4.328722,4.328721 c 0.841214,0.841215 1.448678,0.385978 1.447957,-0.712074 l 0.0029,-8.662493 c 0,-1.262545 -0.719649,-1.461306 -1.441104,-0.739851 l -4.328719,4.328722 c -0.398603,0.398603 -0.408704,1.058012 -0.0097,1.456975 z" id="path3021-1-4-0-9" style="fill:#ffffff" inkscape:transform-center-y="5.4826754" /></svg>
