<?xml version="1.0" encoding="UTF-8" standalone="no"?>
<svg
   xmlns:dc="http://purl.org/dc/elements/1.1/"
   xmlns:cc="http://creativecommons.org/ns#"
   xmlns:rdf="http://www.w3.org/1999/02/22-rdf-syntax-ns#"
   xmlns:svg="http://www.w3.org/2000/svg"
   xmlns="http://www.w3.org/2000/svg"
   xmlns:sodipodi="http://sodipodi.sourceforge.net/DTD/sodipodi-0.dtd"
   xmlns:inkscape="http://www.inkscape.org/namespaces/inkscape"
   version="1.1"
   x="0px"
   y="0px"
   viewBox="0 0 100 100"
   style="enable-background:new 0 0 100 100;"
   xml:space="preserve"
   id="svg2"
   inkscape:version="0.48.4 r9939"
   width="100%"
   height="100%"
   sodipodi:docname="marker_with_bus_smaller_none_inside.svg"><metadata
     id="metadata12"><rdf:RDF><cc:Work
         rdf:about=""><dc:format>image/svg+xml</dc:format><dc:type
           rdf:resource="http://purl.org/dc/dcmitype/StillImage" /><dc:title></dc:title></cc:Work></rdf:RDF></metadata><defs
     id="defs10" /><sodipodi:namedview
     pagecolor="#ffffff"
     bordercolor="#666666"
     borderopacity="1"
     objecttolerance="10"
     gridtolerance="10"
     guidetolerance="10"
     inkscape:pageopacity="0"
     inkscape:pageshadow="2"
     inkscape:window-width="1366"
     inkscape:window-height="706"
     id="namedview8"
     showgrid="false"
     inkscape:zoom="7.1470327"
     inkscape:cx="42.821302"
     inkscape:cy="54.317978"
     inkscape:window-x="-8"
     inkscape:window-y="-8"
     inkscape:window-maximized="1"
     inkscape:current-layer="svg2" /><rect
     style=""
     width="100"
     height="100"
     fill="none"
     id="rect4" /><path
     style="fill:#000000"
     d="M71.5,39c0,12.15-22,44-22,44s-22-31.85-22-44c0-12.151,9.849-22,22-22C61.65,17,71.5,26.849,71.5,39  z"
     fill="#1D1D1B"
     id="path6" /><path
     id="path3001"
     d="m 39.564349,46.608909 c 0,1.099131 0.484363,2.074066 1.241956,2.757143 v 2.210682 c 0,0.683076 0.558881,1.241956 1.241957,1.241956 h 1.241957 c 0.689286,0 1.241956,-0.55888 1.241956,-1.241956 v -1.241957 h 9.93565 v 1.241957 c 0,0.683076 0.552671,1.241956 1.241957,1.241956 h 1.241956 c 0.683076,0 1.241956,-0.55888 1.241956,-1.241956 v -2.210682 c 0.757594,-0.683077 1.241957,-1.658012 1.241957,-2.757143 V 34.189346 c 0,-4.346848 -4.446204,-4.967826 -9.93565,-4.967826 -5.489447,0 -9.935651,0.620978 -9.935651,4.967826 v 12.419563 z m 4.346847,1.241956 c -1.030824,0 -1.862934,-0.832111 -1.862934,-1.862934 0,-1.030825 0.83211,-1.862935 1.862934,-1.862935 1.030824,0 1.862934,0.83211 1.862934,1.862935 0,1.030823 -0.83211,1.862934 -1.862934,1.862934 z m 11.177607,0 c -1.030823,0 -1.862934,-0.832111 -1.862934,-1.862934 0,-1.030825 0.832111,-1.862935 1.862934,-1.862935 1.030824,0 1.862935,0.83211 1.862935,1.862935 0,1.030823 -0.832111,1.862934 -1.862935,1.862934 z m 1.862935,-7.451739 H 42.048262 v -6.20978 h 14.903476 v 6.20978 z"
     inkscape:connector-curvature="0"
     style="fill:#ffffff" /><path
     inkscape:connector-curvature="0"
     d="m 48.781033,20.442238 -4.328721,4.328722 c -0.841215,0.841214 -0.385978,1.448678 0.712074,1.447957 l 8.662493,0.0029 c 1.262545,0 1.461306,-0.719649 0.739851,-1.441104 l -4.328722,-4.328719 c -0.398603,-0.398603 -1.058012,-0.408704 -1.456975,-0.0097 z"
     id="path3021-1-4"
     style="fill:#ffffff" /></svg>