<?xml version="1.0" encoding="UTF-8" standalone="no"?><svg xmlns:dc="http://purl.org/dc/elements/1.1/" xmlns:cc="http://creativecommons.org/ns#" xmlns:rdf="http://www.w3.org/1999/02/22-rdf-syntax-ns#" xmlns:svg="http://www.w3.org/2000/svg" xmlns="http://www.w3.org/2000/svg" xmlns:sodipodi="http://sodipodi.sourceforge.net/DTD/sodipodi-0.dtd" xmlns:inkscape="http://www.inkscape.org/namespaces/inkscape" version="1.1" x="0px" y="0px" viewBox="0 0 100 100" style="enable-background:new 0 0 100 100;" xml:space="preserve" id="svg2" inkscape:version="0.91 r13725" width="100%" height="100%" sodipodi:docname="marker_with_boat_smaller_all_inside.svg"><metadata id="metadata12"><rdf:RDF><cc:Work rdf:about=""><dc:format>image/svg+xml</dc:format><dc:type rdf:resource="http://purl.org/dc/dcmitype/StillImage" /><dc:title /></cc:Work></rdf:RDF></metadata><defs id="defs10" /><sodipodi:namedview pagecolor="#ffffff" bordercolor="#666666" borderopacity="1" objecttolerance="10" gridtolerance="10" guidetolerance="10" inkscape:pageopacity="0" inkscape:pageshadow="2" inkscape:window-width="1920" inkscape:window-height="1058" id="namedview8" showgrid="false" inkscape:zoom="7.1470327" inkscape:cx="25.541403" inkscape:cy="54.344731" inkscape:window-x="1912" inkscape:window-y="-8" inkscape:window-maximized="1" inkscape:current-layer="svg2" /><rect style="" width="100" height="100" fill="none" id="rect4" /><path style="fill:#000000" d="M71.5,39c0,12.15-22,44-22,44s-22-31.85-22-44c0-12.151,9.849-22,22-22C61.65,17,71.5,26.849,71.5,39  z" fill="#1D1D1B" id="path6" /><path d="m 57.619706,49.212149 c -1.428332,0 -2.856663,-0.494615 -4.110306,-1.394393 -2.507286,1.799556 -5.713324,1.799556 -8.220611,0 -1.253643,0.899778 -2.681974,1.394393 -4.110305,1.394393 l -2.055153,0 0,2.104744 2.055153,0 c 1.412917,0 2.815559,-0.363068 4.110305,-1.04711 2.589493,1.362822 5.631119,1.362822 8.220611,0 1.294746,0.67878 2.697388,1.04711 4.110306,1.04711 l 2.055152,0 0,-2.104744 -2.055152,0 z m -16.497739,-2.104744 0.05652,0 c 1.644122,0 3.108418,-0.926088 4.110305,-2.104745 1.001887,1.178657 2.466183,2.104745 4.110306,2.104745 1.644122,0 3.108418,-0.926088 4.110305,-2.104745 1.007025,1.178657 2.461046,2.104745 4.110306,2.104745 l 0.05652,0 1.947258,-7.035108 c 0.08734,-0.268355 0.06165,-0.563019 -0.06166,-0.815589 -0.128447,-0.252569 -0.349376,-0.441996 -0.616546,-0.520924 l -1.325573,-0.447258 0,-4.861959 c 0,-1.162871 -0.919681,-2.104745 -2.055153,-2.104745 l -3.082729,0 0,-3.157116 -6.165458,0 0,3.157116 -3.08273,0 c -1.135471,0 -2.055152,0.941874 -2.055152,2.104745 l 0,4.861959 -1.320436,0.441996 c -0.26717,0.08419 -0.488099,0.268355 -0.616546,0.520925 -0.128447,0.252569 -0.148998,0.547233 -0.06165,0.815588 l 1.942119,7.04037 z m 2.111669,-13.680838 12.330917,0 0,4.172655 -6.165458,-2.067911 -6.165459,2.067911 0,-4.172655 z" style="fill:#ffffff" id="path3342" inkscape:connector-curvature="0" /><path inkscape:connector-curvature="0" d="m 68.390169,40.878112 -4.328722,-4.328721 c -0.841214,-0.841215 -1.448678,-0.385978 -1.447957,0.712074 l -0.0029,8.662493 c 0,1.262545 0.719649,1.461306 1.441104,0.739851 l 4.328719,-4.328722 c 0.398603,-0.398603 0.408704,-1.058012 0.0097,-1.456975 z" id="path3021-1-4-0" style="fill:#ffffff" inkscape:transform-center-y="-5.4826756" /></svg>
