<?xml version="1.0" encoding="UTF-8" standalone="no"?><svg xmlns:dc="http://purl.org/dc/elements/1.1/" xmlns:cc="http://creativecommons.org/ns#" xmlns:rdf="http://www.w3.org/1999/02/22-rdf-syntax-ns#" xmlns:svg="http://www.w3.org/2000/svg" xmlns="http://www.w3.org/2000/svg" xmlns:sodipodi="http://sodipodi.sourceforge.net/DTD/sodipodi-0.dtd" xmlns:inkscape="http://www.inkscape.org/namespaces/inkscape" version="1.1" x="0px" y="0px" viewBox="0 0 100 100" style="enable-background:new 0 0 100 100;" xml:space="preserve" id="svg2" inkscape:version="0.91 r13725" width="100%" height="100%" sodipodi:docname="marker_with_train_smaller_all_inside.svg"><metadata id="metadata12"><rdf:RDF><cc:Work rdf:about=""><dc:format>image/svg+xml</dc:format><dc:type rdf:resource="http://purl.org/dc/dcmitype/StillImage" /><dc:title /></cc:Work></rdf:RDF></metadata><defs id="defs10" /><sodipodi:namedview pagecolor="#ffffff" bordercolor="#666666" borderopacity="1" objecttolerance="10" gridtolerance="10" guidetolerance="10" inkscape:pageopacity="0" inkscape:pageshadow="2" inkscape:window-width="1857" inkscape:window-height="1058" id="namedview8" showgrid="false" inkscape:zoom="7.1470327" inkscape:cx="-19.092505" inkscape:cy="54.317978" inkscape:window-x="-8" inkscape:window-y="-8" inkscape:window-maximized="1" inkscape:current-layer="svg2" /><rect style="" width="100" height="100" fill="none" id="rect4" /><path style="fill:#000000" d="M71.5,39c0,12.15-22,44-22,44s-22-31.85-22-44c0-12.151,9.849-22,22-22C61.65,17,71.5,26.849,71.5,39  z" fill="#1D1D1B" id="path6" /><path d="m 49.343607,29.753694 c -5.052512,0 -10.105025,0.631565 -10.105025,5.052513 l 0,11.999718 c 0,2.437837 1.983111,4.420947 4.420948,4.420947 l -1.894692,1.894693 0,0.631564 2.816776,0 2.526257,-2.526257 4.761992,0 2.526257,2.526257 2.526255,0 0,-0.631564 -1.894691,-1.894693 c 2.437837,0 4.420948,-1.98311 4.420948,-4.420947 l 0,-11.999718 c 0,-4.420948 -4.521998,-5.052513 -10.105025,-5.052513 z M 43.65953,48.700617 c -1.048395,0 -1.894692,-0.846296 -1.894692,-1.894692 0,-1.048397 0.846297,-1.894692 1.894692,-1.894692 1.048396,0 1.894693,0.846295 1.894693,1.894692 0,1.048396 -0.846297,1.894692 -1.894693,1.894692 z m 4.420949,-8.841897 -6.315641,0 0,-5.052513 6.315641,0 0,5.052513 z m 2.526257,0 0,-5.052513 6.315639,0 0,5.052513 -6.315639,0 z m 4.420948,8.841897 c -1.048397,0 -1.894693,-0.846296 -1.894693,-1.894692 0,-1.048397 0.846296,-1.894692 1.894693,-1.894692 1.048397,0 1.894691,0.846295 1.894691,1.894692 0,1.048396 -0.846294,1.894692 -1.894691,1.894692 z" style="fill:#ffffff" id="path8" inkscape:connector-curvature="0" /><path inkscape:connector-curvature="0" d="m 34.409939,27.472717 10e-7,6.121737 c -10e-7,1.189657 0.751442,1.297297 1.527372,0.520348 l 6.127359,-6.123257 C 42.957424,27.09879 42.5891,26.449377 41.568809,26.449377 l -6.121735,2e-6 c -0.56371,0 -1.037125,0.45913 -1.037095,1.023378 z" id="path3021-1-7-4-8" style="fill:#ffffff" /></svg>
