<?xml version="1.0" encoding="UTF-8" standalone="no"?>
<!-- Created with Inkscape (http://www.inkscape.org/) -->

<svg
   xmlns:osb="http://www.openswatchbook.org/uri/2009/osb"
   xmlns:dc="http://purl.org/dc/elements/1.1/"
   xmlns:cc="http://creativecommons.org/ns#"
   xmlns:rdf="http://www.w3.org/1999/02/22-rdf-syntax-ns#"
   xmlns:svg="http://www.w3.org/2000/svg"
   xmlns="http://www.w3.org/2000/svg"
   xmlns:sodipodi="http://sodipodi.sourceforge.net/DTD/sodipodi-0.dtd"
   xmlns:inkscape="http://www.inkscape.org/namespaces/inkscape"
   width="100.31111mm"
   height="132.20222mm"
   viewBox="0 0 355.43308 468.43311"
   id="svg3449"
   version="1.1"
   inkscape:version="0.92+devel unknown"
   sodipodi:docname="bike.svg">
  <defs
     id="defs3451">
    <linearGradient
       id="linearGradient2290"
       osb:paint="solid">
      <stop
         style="stop-color:#ffffff;stop-opacity:1;"
         offset="0"
         id="stop2288" />
    </linearGradient>
    <linearGradient
       id="linearGradient2266"
       osb:paint="solid">
      <stop
         style="stop-color:#ffffff;stop-opacity:1;"
         offset="0"
         id="stop2264" />
    </linearGradient>
  </defs>
  <sodipodi:namedview
     id="base"
     pagecolor="#ffffff"
     bordercolor="#666666"
     borderopacity="1.0"
     inkscape:pageopacity="0.0"
     inkscape:pageshadow="2"
     inkscape:zoom="1.4"
     inkscape:cx="48.017626"
     inkscape:cy="277.38137"
     inkscape:document-units="px"
     inkscape:current-layer="layer1"
     showgrid="false"
     units="mm"
     inkscape:window-width="1920"
     inkscape:window-height="1016"
     inkscape:window-x="0"
     inkscape:window-y="0"
     inkscape:window-maximized="1"
     inkscape:document-rotation="0" />
  <metadata
     id="metadata3454">
    <rdf:RDF>
      <cc:Work
         rdf:about="">
        <dc:format>image/svg+xml</dc:format>
        <dc:type
           rdf:resource="http://purl.org/dc/dcmitype/StillImage" />
        <dc:title />
      </cc:Work>
    </rdf:RDF>
  </metadata>
  <g
     inkscape:label="Layer 1"
     inkscape:groupmode="layer"
     id="layer1"
     transform="translate(0,-583.92909)">
    <path
       inkscape:connector-curvature="0"
       id="path4565"
       d="m 180.11193,605.67396 c -86.416656,0 -156.478985,70.04847 -156.478985,156.47437 0,86.41666 156.478985,271.63347 156.478985,271.63347 0,0 156.47899,-185.21219 156.47899,-271.63347 0,-86.42128 -70.05309,-156.47437 -156.47899,-156.47437 z"
       sodipodi:nodetypes="sscss"
       style="fill:#3a4677;fill-opacity:1;fill-rule:nonzero;stroke:none;stroke-opacity:1" />
  </g>
  <g
     inkscape:groupmode="layer"
     id="layer3"
     inkscape:label="Layer 3">
    <path
       inkscape:connector-curvature="0"
       d="m 248.13527,743.9345 c -1.24019,0 -2.46054,0.0547 -3.6698,0.15533 0.47235,1.34116 0.77524,2.19442 0.77524,2.19442 0,0 1.22219,3.59903 2.79021,8.18478 0.0462,0 0.0693,-0.004 0.1062,-0.004 17.56037,0 31.79677,13.9848 31.79677,31.24482 0,17.25565 -14.23825,31.23826 -31.79677,31.23826 -17.5673,0 -31.79446,-13.9848 -31.79446,-31.23826 0,-11.94134 6.81831,-22.31398 16.83915,-27.57359 l 10.91151,25.00723 c -0.39708,0.77232 -0.6261,1.6409 -0.6261,2.56636 0,3.17021 2.62353,5.74094 5.85238,5.74094 3.22192,0 5.84083,-2.57073 5.84083,-5.74094 0,-2.38039 -1.46505,-4.41728 -3.56498,-5.29025 l -15.75271,-40.79044 c -0.60579,-1.55776 -2.35388,-2.35195 -3.94822,-1.81374 l -8.69107,-19.92702 10.62847,-3.29711 c 1.06659,-0.33258 1.87045,-1.10924 2.26015,-2.05658 l 2.69232,-5.09115 c 2.18212,-0.62573 3.78339,-2.59918 3.79447,-4.95113 0,-2.85734 -2.33818,-5.18523 -5.25075,-5.19617 -2.91257,-0.0129 -5.27984,2.29725 -5.28861,5.15679 -0.004,0.62354 0.11543,1.21864 0.31859,1.77217 l -2.14703,4.05629 -12.76395,3.96002 c -0.53653,0.16627 -1.00657,0.45069 -1.38518,0.80733 -0.90406,0.80731 -1.32239,2.04127 -1.06659,3.23584 0.0462,0.13565 0.06,0.26909 0.1062,0.40475 0.0693,0.22536 0.16622,0.43757 0.27703,0.63667 l 2.04868,4.69076 -55.8684,17.10469 -0.65057,-1.91438 c -0.14314,-0.41569 -0.54299,-0.71761 -1.01765,-0.71761 -0.097,0 -0.1893,0.0175 -0.27703,0.0416 l -0.50559,0.15533 -5.89855,-15.82917 17.60284,-5.38869 c 0.10158,-0.32164 0.15699,-0.68262 0.15699,-1.08737 0,-1.5315 -0.84173,-2.81578 -1.97757,-3.16365 -0.75908,-0.22098 -1.59896,-0.3413 -2.50533,-0.3413 -4.36885,0 -10.57722,0.39819 -18.23957,0.63666 -4.57155,0.14221 -11.69737,-0.36319 -16.50532,-0.75481 l -0.002,0.002 c -0.0877,-0.006 -0.17084,-0.0157 -0.25395,-0.0157 -1.81274,0 -3.28241,1.84436 -3.28241,4.11755 0,1.58838 0.71475,2.96236 1.76564,3.64935 l 0,0.002 c 2.76805,1.98001 6.27994,4.47636 6.42908,4.59669 0.23548,0.19037 5.75818,3.85501 11.55931,0.57759 l 5.50239,14.75055 -0.18469,0.0569 c -0.43864,0.13565 -0.75908,0.53383 -0.75908,1.0086 0,0.1225 0.0462,0.23627 0.0646,0.34787 l 1.26005,3.79374 -36.9247,36.38191 c -0.2678,-0.0392 -0.54114,-0.0657 -0.81725,-0.0657 -3.23116,0 -5.84776,2.57074 -5.84776,5.74751 0,3.17021 2.6166,5.74095 5.84776,5.74095 1.906,0 3.59592,-0.9014 4.66482,-2.29288 l 26.93802,0 c -1.74809,15.63225 -15.22911,27.79019 -31.601,27.79019 -17.560356,0 -31.798606,-13.9848 -31.798606,-31.23826 0,-17.26002 14.23825,-31.24482 31.798606,-31.24482 4.89938,0 9.53973,1.09393 13.68418,3.04112 l 7.90522,-7.78658 c -6.32888,-3.67342 -13.70635,-5.78689 -21.5894,-5.78689 -23.483846,0 -42.518505,18.69963 -42.518505,41.77498 0,23.07536 19.034659,41.77062 42.518505,41.77062 22.29722,0 40.58619,-16.86184 42.37215,-38.32255 l 4.14399,0 c 0.97332,2.70419 3.05755,4.89205 5.71202,6.03849 l -2.64569,12.4883 -2.95505,0.002 c -0.39247,0 -0.71475,0.31286 -0.71475,0.7023 l 0,3.95784 c 0,0.38508 0.3232,0.7023 0.71475,0.7023 l 9.11216,0 c 0.39247,0 0.71245,-0.31942 0.71245,-0.70011 l 0,-3.96003 c 0,-0.39163 -0.31859,-0.7023 -0.71245,-0.70449 l -1.97295,0 2.46285,-11.62847 c 0.0739,0.004 0.14775,0.006 0.22162,0.006 5.81868,0 10.53475,-4.63826 10.53475,-10.35077 0,-1.46367 -0.30936,-2.85734 -0.8662,-4.11973 l 41.47917,-45.1793 5.23967,12.02011 c -13.83332,6.88956 -23.32595,20.99031 -23.32595,37.28112 0,23.07535 19.03235,41.77061 42.52082,41.77061 23.4797,0 42.51898,-18.69526 42.51898,-41.77061 0.004,-23.07755 -19.03466,-41.77718 -42.51436,-41.77718 z m -85.52091,38.32036 -38.0407,0 16.32941,-16.08733 c 2.23799,2.73701 4.01702,5.85471 5.21981,9.23714 l 11.18717,0 c -1.61882,-6.25946 -4.67406,-11.95884 -8.80466,-16.72837 l 7.79394,-7.67938 9.07846,27.12508 c -1.23327,1.1355 -2.18859,2.54229 -2.76343,4.13286 z m 13.16981,-6.40605 c -0.66627,-0.20565 -1.3584,-0.35225 -2.07361,-0.43319 l -9.41044,-28.09649 53.13175,-16.26893 -41.6477,44.79861 z"
       id="path3460"
       style="fill:#ffffff;fill-opacity:1;stroke:none;stroke-width:0.30000001;stroke-miterlimit:4;stroke-dasharray:none;stroke-opacity:1;fill-rule:evenodd"
       transform="translate(0,-583.92909)" />
  </g>
  <g
     inkscape:groupmode="layer"
     id="layer2"
     inkscape:label="Layer 2"
     sodipodi:insensitive="true"
     style="display:none">
    <path
       transform="translate(0,-583.92909)"
       inkscape:connector-curvature="0"
       id="path4565-5"
       d="m 180.21429,594.91219 c -92.19679,0 -166.945509,74.734 -166.945509,166.94069 0,92.19699 166.945509,289.80262 166.945509,289.80262 0,0 166.94553,-197.60084 166.94553,-289.80262 0,-92.20178 -74.73871,-166.94069 -166.94553,-166.94069 z"
       sodipodi:nodetypes="sscss"
       style="fill:none;fill-opacity:1;fill-rule:nonzero;stroke:#000000;stroke-width:1.06688809;stroke-opacity:1" />
  </g>
</svg>
