<?xml version="1.0" encoding="UTF-8" standalone="no"?>
<!-- Created with Inkscape (http://www.inkscape.org/) -->

<svg
   xmlns:osb="http://www.openswatchbook.org/uri/2009/osb"
   xmlns:dc="http://purl.org/dc/elements/1.1/"
   xmlns:cc="http://creativecommons.org/ns#"
   xmlns:rdf="http://www.w3.org/1999/02/22-rdf-syntax-ns#"
   xmlns:svg="http://www.w3.org/2000/svg"
   xmlns="http://www.w3.org/2000/svg"
   xmlns:sodipodi="http://sodipodi.sourceforge.net/DTD/sodipodi-0.dtd"
   xmlns:inkscape="http://www.inkscape.org/namespaces/inkscape"
   width="100.31111mm"
   height="132.20222mm"
   viewBox="0 0 355.43308 468.43311"
   id="svg3449"
   version="1.1"
   inkscape:version="0.92+devel unknown"
   sodipodi:docname="bike_station_marker_big.svg">
  <defs
     id="defs3451">
    <linearGradient
       id="linearGradient2290"
       osb:paint="solid">
      <stop
         style="stop-color:#ffffff;stop-opacity:1;"
         offset="0"
         id="stop2288" />
    </linearGradient>
    <linearGradient
       id="linearGradient2266"
       osb:paint="solid">
      <stop
         style="stop-color:#ffffff;stop-opacity:1;"
         offset="0"
         id="stop2264" />
    </linearGradient>
  </defs>
  <sodipodi:namedview
     id="base"
     pagecolor="#ffffff"
     bordercolor="#666666"
     borderopacity="1.0"
     inkscape:pageopacity="0.0"
     inkscape:pageshadow="2"
     inkscape:zoom="1.4"
     inkscape:cx="-3.6067029"
     inkscape:cy="242.05069"
     inkscape:document-units="px"
     inkscape:current-layer="layer4"
     showgrid="false"
     units="mm"
     inkscape:window-width="1920"
     inkscape:window-height="1016"
     inkscape:window-x="0"
     inkscape:window-y="0"
     inkscape:window-maximized="1"
     inkscape:document-rotation="0" />
  <metadata
     id="metadata3454">
    <rdf:RDF>
      <cc:Work
         rdf:about="">
        <dc:format>image/svg+xml</dc:format>
        <dc:type
           rdf:resource="http://purl.org/dc/dcmitype/StillImage" />
        <dc:title />
      </cc:Work>
    </rdf:RDF>
  </metadata>
  <g
     inkscape:label="Layer 1"
     inkscape:groupmode="layer"
     id="layer1"
     transform="translate(0,-583.92909)">
    <path
       inkscape:connector-curvature="0"
       id="path4565"
       d="m 180.11193,605.67396 c -86.416656,0 -156.478985,70.04847 -156.478985,156.47437 0,86.41666 156.478985,271.63347 156.478985,271.63347 0,0 156.47899,-185.21219 156.47899,-271.63347 0,-86.42128 -70.05309,-156.47437 -156.47899,-156.47437 z"
       sodipodi:nodetypes="sscss"
       style="fill:#3a4677;fill-opacity:1;fill-rule:nonzero;stroke:none;stroke-opacity:1" />
  </g>
  <g
     inkscape:groupmode="layer"
     id="layer3"
     inkscape:label="Layer 3">
    <path
       inkscape:connector-curvature="0"
       d="m 258.38381,242.8289 c -0.64692,0 -1.28349,0.0285 -1.91427,0.081 0.24639,0.69959 0.40438,1.14468 0.40438,1.14468 0,0 0.63753,1.87735 1.45546,4.26941 0.0241,0 0.0362,-0.002 0.0554,-0.002 9.15999,0 16.58609,7.29487 16.58609,16.29818 0,9.00103 -7.42707,16.29475 -16.58609,16.29475 -9.16359,0 -16.58488,-7.29486 -16.58488,-16.29475 0,-6.22894 3.55662,-11.6396 8.78377,-14.38316 l 5.69175,13.04447 c -0.20712,0.40287 -0.32659,0.85594 -0.32659,1.33869 0,1.65367 1.36851,2.99463 3.05277,2.99463 1.68064,0 3.04674,-1.34096 3.04674,-2.99463 0,-1.24168 -0.76421,-2.30418 -1.85959,-2.75955 l -8.21706,-21.27744 c -0.316,-0.81257 -1.22785,-1.22684 -2.0595,-0.94609 l -4.53351,-10.3945 5.54411,-1.71986 c 0.55636,-0.17349 0.97568,-0.57861 1.17896,-1.07277 l 1.40439,-2.65569 c 1.13825,-0.3264 1.97352,-1.35581 1.9793,-2.58265 0,-1.49047 -1.21966,-2.70476 -2.73894,-2.71047 -1.51928,-0.007 -2.75411,1.19831 -2.75869,2.68993 -0.002,0.32526 0.0602,0.63568 0.16619,0.92441 l -1.11995,2.11588 -6.65804,2.06566 c -0.27987,0.0867 -0.52505,0.23509 -0.72255,0.42112 -0.47158,0.42112 -0.68979,1.06479 -0.55636,1.68791 0.0241,0.0708 0.0313,0.14036 0.0554,0.21113 0.0361,0.11755 0.0867,0.22825 0.1445,0.3321 l 1.06865,2.44683 -29.14253,8.92229 -0.33935,-0.99859 c -0.0747,-0.21684 -0.28324,-0.37433 -0.53084,-0.37433 -0.0506,0 -0.0987,0.009 -0.1445,0.0217 l -0.26373,0.081 -3.07685,-8.25694 9.18213,-2.81089 c 0.053,-0.16777 0.0819,-0.35607 0.0819,-0.5672 0,-0.79887 -0.43907,-1.46879 -1.03155,-1.65025 -0.39596,-0.11527 -0.83406,-0.17803 -1.30685,-0.17803 -2.27892,0 -5.51738,0.20771 -9.51427,0.3321 -2.38465,0.0742 -6.10168,-0.18945 -8.60964,-0.39373 l -0.001,0.001 c -0.0457,-0.003 -0.0891,-0.008 -0.13246,-0.008 -0.94558,0 -1.7122,0.96207 -1.7122,2.14783 0,0.82855 0.37283,1.54525 0.92101,1.90361 v 0.001 c 1.44389,1.03283 3.27579,2.33499 3.35358,2.39776 0.12284,0.0993 3.00363,2.01088 6.02967,0.30129 l 2.8702,7.6943 -0.0963,0.0297 c -0.22881,0.0708 -0.39596,0.27846 -0.39596,0.52612 0,0.0639 0.0241,0.12324 0.0337,0.18145 l 0.65727,1.97893 -19.26095,18.97782 c -0.13969,-0.0205 -0.28228,-0.0343 -0.4263,-0.0343 -1.68547,0 -3.05036,1.34097 -3.05036,2.99806 0,1.65368 1.36489,2.99465 3.05036,2.99465 0.99422,0 1.87573,-0.4702 2.4333,-1.19604 h 14.05162 c -0.91185,8.15423 -7.94393,14.49615 -16.48396,14.49615 -9.15998,0 -16.58705,-7.29487 -16.58705,-16.29476 0,-9.00331 7.42707,-16.29817 16.58705,-16.29817 2.55565,0 4.97618,0.57062 7.13805,1.58633 l 4.12358,-4.0617 c -3.30132,-1.91616 -7.14961,-3.0186 -11.26163,-3.0186 -12.24984,0 -22.17885,9.75425 -22.17885,21.791 0,12.03676 9.92901,21.78873 22.17885,21.78873 11.63085,0 21.17089,-8.79561 22.1025,-19.99012 h 2.16162 c 0.50771,1.41058 1.5949,2.55183 2.97955,3.14985 l -1.38007,6.51425 -1.54143,10e-4 c -0.20473,0 -0.37284,0.1632 -0.37284,0.36634 v 2.06452 c 0,0.20087 0.16859,0.36634 0.37284,0.36634 h 4.75315 c 0.20473,0 0.37164,-0.16662 0.37164,-0.3652 v -2.06566 c 0,-0.20429 -0.16619,-0.36634 -0.37164,-0.36748 h -1.02914 l 1.28469,-6.06574 c 0.0386,0.002 0.0771,0.003 0.1156,0.003 3.03519,0 5.49522,-2.41945 5.49522,-5.39925 0,-0.76349 -0.16137,-1.49047 -0.45183,-2.14897 l 21.6367,-23.56679 2.73316,6.27003 c -7.21585,3.59378 -12.16747,10.94913 -12.16747,19.44688 0,12.03675 9.92781,21.78872 22.18005,21.78872 12.24768,0 22.1791,-9.75197 22.1791,-21.78872 0.002,-12.0379 -9.92901,-21.79216 -22.17669,-21.79216 z m -44.61011,19.98898 h -19.8431 l 8.51788,-8.39161 c 1.1674,1.4277 2.09539,3.05398 2.7228,4.81836 h 5.83554 c -0.84442,-3.26511 -2.43812,-6.23807 -4.59276,-8.72599 l 4.06554,-4.00578 4.73558,14.1492 c -0.64331,0.59231 -1.14163,1.32613 -1.44148,2.15582 z m 6.86974,-3.34158 c -0.34754,-0.10727 -0.70858,-0.18374 -1.08165,-0.22596 l -4.90875,-14.65592 27.71501,-8.48633 z"
       id="path3460"
       style="fill:#ffffff;fill-opacity:1;fill-rule:evenodd;stroke:none;stroke-width:0.15648843;stroke-miterlimit:4;stroke-dasharray:none;stroke-opacity:1" />
  </g>
  <g
     inkscape:groupmode="layer"
     id="layer4"
     inkscape:label="Layer 4"
     style="display:inline">
    <text
       xml:space="preserve"
       style="font-style:normal;font-weight:normal;font-size:257.322052px;font-family:sans-serif;fill:#ffffff;fill-opacity:1;stroke:none;stroke-width:6.43305159"
       x="100.88436"
       y="295.56122"
       id="text4290"
       transform="scale(1.0355914,0.96563181)"><tspan
         sodipodi:role="line"
         id="tspan4288"
         x="100.88436"
         y="295.56122"
         style="fill:#ffffff;stroke-width:6.43305159">P</tspan></text>
  </g>
  <g
     inkscape:groupmode="layer"
     id="layer2"
     inkscape:label="Layer 2"
     sodipodi:insensitive="true"
     style="display:none">
    <path
       transform="translate(0,-583.92909)"
       inkscape:connector-curvature="0"
       id="path4565-5"
       d="m 180.21429,594.91219 c -92.19679,0 -166.945509,74.734 -166.945509,166.94069 0,92.19699 166.945509,289.80262 166.945509,289.80262 0,0 166.94553,-197.60084 166.94553,-289.80262 0,-92.20178 -74.73871,-166.94069 -166.94553,-166.94069 z"
       sodipodi:nodetypes="sscss"
       style="fill:none;fill-opacity:1;fill-rule:nonzero;stroke:#000000;stroke-width:1.06688809;stroke-opacity:1" />
  </g>
</svg>
